# xmcd
#
# Track frame offsets:
#	150
#	16057
#	29692
#	47285
#	60768
#	74242
#	92573
#	107815
#	121406
#	139675
#	153822
#	175710
#	190174
# Disc length: 2688 seconds
# Revision: 1
# Processed by: cddbd v1.5.1PL2 Copyright (c) Steve Scherf et al.
#
# Submitted via: libkcddb 0.31
#
DISCID=a10a7e0d
DTITLE=Gaucho da Fronteira - Xucro de Campanha
DYEAR=1998
DGENRE=Gauchesca
TTITLE0=Gaiteiro Murrinha
TTITLE1=Pra la de Vadio
TTITLE2=Xucro de Campanha
TTITLE3=A Fome e a Vontade de Comer
TTITLE4=Jogo Aberto
TTITLE5=Joao Saudade
TTITLE6=Timbre de Galo
TTITLE7=La Furiosa
TTITLE8=Gaucho Macho
TTITLE9=O Papa eh Gaucho
TTITLE10=O Sonho
TTITLE11=Saudade de Querencia
TTITLE12=Motorista Brasileiro
EXTD=
EXTT0=
EXTT1=
EXTT2=
EXTT3=
EXTT4=
EXTT5=
EXTT6=
EXTT7=
EXTT8=
EXTT9=
EXTT10=
EXTT11=
EXTT12=
PLAYORDER=
